<?xml version="1.0" encoding="UTF-8" standalone="no"?>
<!-- Created with Inkscape (http://www.inkscape.org/) -->

<svg
   xmlns:dc="http://purl.org/dc/elements/1.1/"
   xmlns:cc="http://creativecommons.org/ns#"
   xmlns:rdf="http://www.w3.org/1999/02/22-rdf-syntax-ns#"
   xmlns:svg="http://www.w3.org/2000/svg"
   xmlns="http://www.w3.org/2000/svg"
   xmlns:sodipodi="http://sodipodi.sourceforge.net/DTD/sodipodi-0.dtd"
   xmlns:inkscape="http://www.inkscape.org/namespaces/inkscape"
   width="8.5in"
   height="11in"
   id="svg2"
   version="1.1"
   inkscape:version="0.92.3 (2405546, 2018-03-11)"
   sodipodi:docname="Fingerprint_picture.svg"
   inkscape:output_extension="org.inkscape.output.svg.inkscape"
   viewBox="0 0 765.00001 990.00002">
  <defs
     id="defs4">
    <inkscape:perspective
       sodipodi:type="inkscape:persp3d"
       inkscape:vp_x="0 : 526.1811 : 1"
       inkscape:vp_y="0 : 1000 : 0"
       inkscape:vp_z="744.0945 : 526.1811 : 1"
       inkscape:persp3d-origin="372.04724 : 350.7874 : 1"
       id="perspective10" />
    <inkscape:perspective
       id="perspective2824"
       inkscape:persp3d-origin="0.50000001 : 0.33333333 : 1"
       inkscape:vp_z="1 : 0.50000001 : 1"
       inkscape:vp_y="0 : 1000 : 0"
       inkscape:vp_x="0 : 0.50000001 : 1"
       sodipodi:type="inkscape:persp3d" />
  </defs>
  <sodipodi:namedview
     id="base"
     pagecolor="#ffffff"
     bordercolor="#666666"
     borderopacity="1.0"
     inkscape:pageopacity="0.0"
     inkscape:pageshadow="2"
     inkscape:zoom="0.49497475"
     inkscape:cx="-308.09626"
     inkscape:cy="501.2058"
     inkscape:document-units="px"
     inkscape:current-layer="layer1"
     showgrid="false"
     inkscape:window-width="1842"
     inkscape:window-height="1177"
     inkscape:window-x="3270"
     inkscape:window-y="-8"
     inkscape:window-maximized="1"
     units="in" />
  <metadata
     id="metadata7">
    <rdf:RDF>
      <cc:Work
         rdf:about="">
        <dc:format>image/svg+xml</dc:format>
        <dc:type
           rdf:resource="http://purl.org/dc/dcmitype/StillImage" />
        <dc:title></dc:title>
      </cc:Work>
    </rdf:RDF>
  </metadata>
  <g
     inkscape:label="Capa 1"
     inkscape:groupmode="layer"
     id="layer1"
     transform="translate(-156.01726,214.25288)">
    <path
       style="fill:#08b000;fill-opacity:1;stroke-width:0.4556106"
       d="m 496.74649,231.85975 c -5.10877,-3.93781 -8.32213,-16.38457 -0.91018,-6.02477 1.5392,1.43896 7.21198,7.01315 0.91018,6.02477 z m 11.07134,-1.27571 c -9.58947,-5.1618 -14.40303,-16.20146 -18.40918,-25.76071 -3.75776,-12.27729 -3.02081,-24.91155 -6.33997,-37.32913 -2.67106,-4.06985 -0.59988,-21.69132 3.40533,-16.80384 -3.07044,15.35258 3.18052,30.45225 4.38603,45.68132 3.32902,10.70914 7.18733,21.67092 15.39432,29.7564 2.15581,1.67912 6.91791,9.26598 1.56347,4.45596 z m 20.48138,-0.5741 c -1.761,-5.14693 3.24597,-0.26596 0,0 z m -17.63381,-5.39735 c -8.79422,-9.02014 -13.18726,-21.64777 -16.55834,-33.47448 -2.48572,-12.07636 -5.42758,-24.11376 -4.47626,-36.50367 0.46529,-10.34716 3.28167,-23.73714 10.96165,-30.10713 -3.0123,10.37781 -9.85631,22.7971 -8.36058,35.16093 0.55883,11.20669 2.21237,21.72428 5.74537,32.52192 3.37731,10.9978 7.73132,21.86452 14.71536,31.1138 9.63593,2.83988 0.8565,8.83276 -2.0272,1.28863 z m 13.78222,3.23779 c -9.32704,-5.33396 9.66831,-1.90163 0,0 z m 8.76233,-1.82245 c -11.92551,-6.29304 -15.44128,-20.6455 -20.93972,-31.49339 4.20639,-11.28333 11.85813,13.68922 13.31874,19.14967 1.51121,6.47616 11.60712,11.08779 13.27686,13.27436 -1.88646,0.26436 -4.05226,0.27023 -5.65588,-0.93064 z m 14.26546,-1.33535 c 0.29525,-2.52272 2.41543,1.51753 0,0 z m -30.65927,-2.5882 c -7.56874,-8.7711 -10.51702,-20.12772 -14.16352,-30.63847 -1.7572,-10.7715 6.21448,-3.11466 4.80319,3.12965 1.3244,9.92584 12.80591,19.64882 10.54077,28.36407 -0.39348,-0.28508 -0.78696,-0.57016 -1.18044,-0.85525 z m 25.05041,0.27867 c -5.76655,-1.51474 -18.85072,-13.30809 -12.50871,-15.1253 1.39691,6.15461 14.04774,10.02386 12.50871,15.1253 z m 12.42356,0 c -10.85013,-3.3038 -17.37641,-13.63636 -25.92944,-20.2745 8.4639,-0.48234 16.47858,12.67098 25.39593,17.02963 1.33967,0.95083 4.64614,6.14753 0.53351,3.24487 z m -67.14133,-3.65491 c -4.95573,-14.69505 11.46362,4.86748 0,0 z m 72.73073,-1.35681 c -5.49341,-1.36181 -20.3245,-11.58325 -13.59048,-13.17516 5.56033,3.79791 14.76054,10.89052 17.08475,13.99911 -1.18314,0.29657 -2.65668,0.197 -3.49427,-0.82395 z m -79.37886,0.0315 c 0.68153,-2.70345 2.60306,2.02858 0,0 z m -3.09483,-3.14956 c -6.07197,-9.1133 -7.49398,-20.49574 -6.0398,-30.95119 -0.87924,-10.10615 4.32138,-19.24469 4.18057,-29.36036 3.59532,-10.50099 3.67997,-22.18226 9.59721,-31.95379 3.35859,-6.01117 8.4231,-13.00416 15.5835,-12.11077 -1.25014,-7.78634 6.57601,-0.85209 9.77546,-8.19711 11.39788,-6.987722 24.62238,-9.796112 37.60919,-12.166982 18.5192,4.37347 32.13984,18.550422 42.86099,33.461352 8.69,8.97394 13.27243,21.12157 22.3849,29.71299 3.72999,5.11816 0.26968,13.15203 -3.25543,3.85993 -6.34896,-9.06474 -15.57491,-16.5541 -19.77474,-26.72691 -6.45611,-10.62512 -14.21283,-19.52084 -23.21797,-27.91231 -10.40192,-7.163492 -24.12644,-11.449682 -36.28353,-5.729192 -14.93455,3.80449 -28.11423,13.240872 -35.68107,26.755592 -7.18983,3.19416 9.2872,-16.64753 -2.30002,-6.79578 -8.123,8.27772 -8.89686,20.74057 -12.5396,31.22167 -1.28993,12.31534 -5.45908,23.05038 -5.8758,35.13773 -0.50993,11.22257 2.44095,22.58942 6.12272,32.77828 l -0.97237,0.10781 -2.17398,-1.13096 z m 92.97034,1.32383 c -10.64042,-5.36836 -19.7202,-13.39469 -27.70413,-21.93253 -5.19853,-6.07292 3.91251,-14.76186 5.22594,-4.43085 5.25132,12.29901 19.3998,15.92257 26.14057,26.33842 l -1.0028,0.36801 z m 10.89183,-3.04468 c -2.34528,-7.78707 8.17162,0.96496 0,0 z m -95.24353,-3.6658 c -1.00715,-2.91446 2.88238,0.97441 0,0 z m 85.12325,-3.12905 c -9.63717,-5.70018 -17.62728,-13.67246 -22.12531,-23.9557 -6.54293,-12.18887 -10.57827,-26.66843 -10.25592,-40.83918 4.90384,-3.63416 3.35668,12.22904 6.0985,15.40903 1.03879,11.70547 6.84185,18.66635 10.6933,29.64619 6.28543,7.03222 16.19531,15.92274 24.12353,22.17029 -2.52256,3.20111 -6.72655,0.0438 -8.5341,-2.43063 z m -89.64139,0.3068 c -4.27937,-10.82707 -1.87029,-22.80122 -2.63062,-34.12263 5.04507,-1.8337 0.78173,15.05552 4.12734,20.43686 -1.12267,3.15923 7.31688,19.62153 -1.49672,13.68577 z m 104.90434,0.4534 c -9.44936,-6.11874 -18.22017,-12.51277 -24.2707,-21.05106 -5.7622,-10.40821 -12.11219,-21.28175 -14.24869,-33.12156 9.05204,-1.90771 5.01688,18.12478 13.97876,20.6587 2.64117,12.52303 14.75344,24.26816 26.67453,30.04785 4.40188,2.53957 2.62319,6.01267 -2.1339,3.46607 z m -46.00874,-3.23553 c -8.13255,-3.6636 -16.86501,-20.69884 -9.86549,-25.74105 5.2392,7.19643 3.2273,18.08871 12.44443,23.18102 -0.0351,0.73742 -1.73717,4.76234 -2.57894,2.56003 z m -75.34794,-1.24216 c -3.36338,-9.87332 1.59564,-20.40785 0.49057,-30.36827 -0.43052,-12.33889 4.27954,-24.357 8.02121,-36.4093 3.44462,-8.39131 -1.64205,-8.68206 -3.66988,-0.9433 -3.07621,9.59718 -6.56303,18.89351 -8.04083,29.10943 -5.49936,6.90075 6.94315,16.93607 -3.56877,22.39641 -11.17761,-11.05778 4.44135,-26.0572 5.13564,-38.9782 2.26395,-10.47798 5.61913,-21.43084 15.22019,-27.43389 4.00983,-4.51973 13.36441,-16.69105 16.20425,-13.96948 -8.91096,9.58709 -19.04628,18.80676 -19.55619,32.86004 -2.94124,12.69633 -7.15297,24.86162 -7.1908,38.5518 -0.64849,8.42626 -0.24713,17.1304 -3.04539,25.18476 z m -5.38894,-22.148 c 2.9208,-8.75828 -9.27437,3.96413 0,0 z m 65.12429,18.35394 c -6.68355,-8.73344 -7.37643,-19.59984 -6.92981,-30.02928 -1.28947,-5.7998 0.69408,-25.50635 2.26174,-9.78584 0.83716,11.41019 1.22384,24.42538 7.15631,33.94509 1.90528,1.88162 1.3086,12.58843 -2.48824,5.87003 z m 66.84178,1.80127 c 3.25061,-10.06693 -12.74925,-16.31262 -15.74207,-25.94911 -5.75121,-9.30471 -11.58334,-18.09204 -14.32494,-28.7116 -5.03247,-8.29467 -13.21594,-24.60397 -24.83514,-16.89591 -11.7805,7.37801 -8.66979,22.95613 -8.15391,34.65926 2.71866,4.64237 1.98559,16.78288 -3.38486,8.11334 -0.22596,-11.05744 -1.92537,-22.39013 0.48221,-33.33167 2.85303,-8.8778 13.63868,-18.65021 23.38611,-14.34576 11.36897,9.05567 16.5302,23.08879 22.63396,35.83422 6.03297,10.97417 12.37034,21.61961 21.06591,30.78922 4.44943,2.30563 5.58556,11.2603 -1.12727,9.83801 z m -5.44825,-2.24719 c -16.41882,-10.76814 -23.68983,-30.20426 -31.26443,-47.42977 -1.29838,-9.25394 -13.92621,-24.60748 -19.43244,-9.77486 -3.03527,12.2033 3.74536,23.52885 3.62639,35.05727 -6.09828,2.14315 -4.24068,-14.92488 -7.03752,-19.96118 -2.09779,-10.0897 2.23392,-30.62466 16.06503,-23.01675 10.20503,8.47744 10.76974,22.67943 18.03263,33.16519 5.78491,12.28539 14.1943,23.46056 24.40856,32.2911 -0.81381,1.37819 -3.28116,-0.39349 -4.39822,-0.33102 z m 12.98338,-8.11724 c -6.95019,-9.30947 -16.53613,-16.60253 -20.94651,-27.69465 -7.72741,-11.68838 -11.3096,-26.02458 -20.96757,-36.35613 -7.88061,-5.28021 -19.31564,-16.92777 -28.50679,-7.75178 -7.93627,3.32855 -15.42689,18.70707 -19.39189,18.8217 2.59541,-11.58747 13.21205,-20.58384 23.73227,-25.07669 10.95183,-2.51328 18.93628,7.1936 27.64863,11.92753 15.2386,16.93258 18.97403,41.70998 36.18913,57.28824 1.13665,2.15074 11.85225,15.53038 2.24273,8.84178 z m -139.87094,1.01731 c 1.36674,-1.99598 1.16321,2.608 0,0 z m -1.59464,-1.10106 c -0.29624,-3.93846 2.75135,2.15063 0,0 z m 52.89958,-0.26507 c -5.17849,-10.85426 -7.62338,-22.61764 -7.10655,-34.80737 -3.22541,-6.19691 8.85278,-21.58116 4.53508,-7.93486 -2.25545,9.54233 -2.07341,20.27748 -0.20437,29.71163 10.12403,3.62007 -3.79558,-20.52032 5.58008,-17.2282 0.0198,8.23078 1.2491,19.30234 0.43107,26.05543 2.85894,2.46128 -0.95784,4.2598 -3.23531,4.20337 z m -11.35377,-6.02451 c -2.24966,-12.62615 -4.83424,-25.66847 -2.02664,-38.64749 4.04327,-14.08299 13.20098,-27.05193 25.27132,-35.27194 9.6489,-4.88041 21.66772,-9.885712 31.65805,-2.77736 5.97679,3.02542 17.25105,13.6371 13.09618,18.34151 -5.30562,-6.43858 -13.9821,-11.06019 -20.25918,-13.9988 4.35132,-0.20745 12.54505,2.10629 3.81171,-2.51191 -8.33798,-3.84084 -18.14761,-1.23268 -25.72571,3.48906 -8.55938,3.94082 -14.29818,12.58435 -19.03284,20.54517 -7.89371,9.42326 -6.73299,24.13391 -5.18733,36.06589 -1.24289,3.26273 6.285,20.09775 -1.60556,14.76587 z m 38.75556,-0.0819 c -3.44859,-10.07115 12.34568,0.79862 1.13796,0.93314 -0.37932,-0.31105 -0.75864,-0.62209 -1.13796,-0.93314 z m 64.20313,-2.58891 c -7.39966,-9.89144 -14.63349,-19.9736 -21.16542,-30.25675 -2.63858,-6.12932 -12.94698,-20.26249 -8.71841,-23.08105 7.40258,8.15024 11.34664,18.83334 17.23813,28.58226 4.70885,8.9326 12.33428,16.03621 17.57248,24.51226 -1.20432,1.23169 -3.42528,0.22194 -4.92678,0.24328 z m 7.21843,-3.33371 c -0.57259,-3.95053 2.86726,1.04853 0,0 z M 449.14092,173.8055 c -2.79799,-8.14197 10.10811,-23.37764 4.52183,-25.98378 -1.74172,5.79075 -9.1157,13.67765 -4.85478,2.47541 7.98977,-6.43279 10.70423,-17.35877 17.02498,-24.16944 -4.15292,13.70883 -9.24759,27.26437 -12.56463,41.27883 -0.87126,2.36957 -1.76609,5.08513 -4.1274,6.39898 z m 158.55249,-1.82244 c -4.62355,-9.79863 -13.89858,-16.73092 -17.80055,-26.47296 -9.39643,-7.91601 -10.62277,-21.06509 -19.69907,-29.2911 -7.88009,-8.4226 -17.16796,-18.127142 -29.86962,-16.695672 -11.96799,2.106142 -25.33093,7.925832 -31.82937,18.524842 -4.19325,7.09183 -9.22546,2.3913 -2.74508,-2.4895 9.09945,-12.02615 24.5409,-17.517202 39.10722,-18.889882 13.78699,2.05199 24.93798,11.097192 32.9038,22.095602 7.19501,9.06357 11.3059,20.11219 19.03119,28.84961 0.97805,7.43235 18.35473,18.35643 10.90148,24.36906 z M 447.24616,161.37092 c -0.75268,-3.0181 2.50229,0.72877 0,0 z m 64.30099,-8.20777 c -1.00584,-4.01343 2.66549,-21.58125 3.16022,-8.7254 -0.41982,1.73191 -0.22025,10.79857 -3.16022,8.7254 z m 105.27552,-4.15819 C 605.0466,133.57508 592.8353,118.45893 580.33424,103.64054 571.16435,95.676108 560.8671,86.970918 548.03221,86.813398 c -10.57835,-3.85068 -21.87856,-3.12607 -32.10287,1.09153 -11.02855,4.19964 -21.24477,9.94182 -29.8774,18.094342 -6.6276,3.83392 -14.01918,19.30368 -18.52934,16.15835 10.44279,-13.88593 23.71647,-26.061882 39.38401,-33.724092 18.35371,-7.25878 39.42578,-8.75235 57.86255,-0.91122 9.32143,4.01635 16.4759,12.06408 23.61888,18.922452 8.87688,8.76286 15.13536,19.42035 23.20428,28.64224 0.12253,4.3565 16.49296,15.96863 5.23035,13.91796 z m -69.93623,-1.07243 c -4.24873,-5.80447 -0.94654,-11.8742 1.76312,-3.12681 1.0305,1.12307 0.55449,6.17495 -1.76312,3.12681 z M 445.3814,145.3561 c 11.80904,-14.13417 16.70998,-33.95505 32.96323,-44.26089 1.76026,5.8528 -15.27958,15.20836 -17.72728,24.71457 -3.98681,7.03102 -5.80211,17.91959 -15.23595,19.54632 z m 38.82062,0.18063 c -1.72131,-8.22215 8.78007,1.53458 0,0 z m 35.39308,-2.08079 c -3.90737,-5.06353 6.77112,-23.63047 6.67753,-14.27963 -2.81225,4.47426 -3.26686,10.16582 -6.67753,14.27963 z m -33.57064,-3.38654 c 0.28099,-5.78335 8.57406,-21.42261 4.7119,-7.18722 -0.8431,2.38809 -0.97757,7.65419 -4.7119,7.18722 z m 133.0476,-2.79656 c -12.80752,-17.84292 -26.65774,-35.72825 -44.66998,-48.590082 -15.06625,-9.37092 -33.94822,-12.58879 -51.05689,-7.78468 -6.2599,1.38151 -13.24875,-0.57293 -3.54439,-2.23585 10.51041,-0.83284 20.7724,-4.32722 31.3471,-2.44296 17.48163,3.12497 34.16422,12.69073 45.03263,26.870052 9.24599,10.30196 18.94112,20.41532 26.45389,32.05911 2.35665,3.40069 -1.85114,3.35988 -3.56236,2.12441 z M 446.1965,136.68307 c 0.0582,-11.52434 10.09176,-20.24355 15.88359,-29.4575 10.7013,-13.790442 24.48055,-25.365842 40.2722,-32.820962 7.56379,0.67286 -9.93224,8.9842 -14.13295,11.66174 -9.08267,5.72806 -14.82817,15.214322 -23.43168,21.509882 -4.95112,8.90443 -12.09717,16.59619 -15.43848,26.29261 -0.30418,1.2917 -1.4952,3.22261 -3.15268,2.81423 z m 68.7972,-1.07595 c -2.42844,-6.70058 5.28751,3.77226 0,0 z m 108.64608,-7.81829 c -11.62443,-15.83736 -25.23533,-30.549102 -40.79505,-42.567552 -10.11155,-4.88719 -19.89063,-11.97301 -31.59436,-12.28381 -7.45195,-4.8551 -17.51428,4.29214 -22.36932,-0.57855 9.28948,-7.18311 22.10149,-2.69309 33.06015,-0.39769 13.29279,4.717 26.72502,10.64006 36.30366,21.46325 11.37418,8.103512 17.42362,21.473682 27.31304,31.049742 1.43019,1.54449 0.77254,4.61416 -1.91812,3.31461 z m -179.96552,-3.64421 c -1.83035,-5.86034 14.32227,-19.8844 7.42833,-8.78686 -3.00851,2.34136 -2.49908,9.27041 -7.42833,8.78686 z m 84.50328,-1.19859 c 2.94527,-5.82468 19.86331,-5.6171 6.95097,-0.79233 -1.6571,0.56801 -6.82341,4.99672 -6.95097,0.79233 z m 97.30173,-3.94789 c -3.99381,-8.05093 -14.59981,-18.33546 -16.64065,-23.305242 8.71549,2.58489 17.923,11.342542 22.97921,17.117992 -3.78579,-3.1607 -14.27217,-6.33992 -6.34861,0.8666 2.31131,2.41657 7.68039,11.0928 0.0101,5.32065 z m -182.73888,-6.39299 c -5.12731,-6.44378 14.86116,-15.329952 5.53614,-5.45011 -1.25629,1.76218 -2.09883,9.02797 -5.53614,5.45011 z m 12.11271,-3.99068 c -2.8286,-5.84401 10.84502,-10.559242 3.58338,-2.21769 -0.60517,1.16834 -1.98688,3.32239 -3.58338,2.21769 z m 174.61276,-5.14579 c -13.32904,-7.964552 -20.49753,-22.700912 -33.94505,-30.519752 -7.95508,-7.46966 -17.10176,-12.35232 -27.53939,-15.47949 -11.98272,-4.56088 -24.74292,-5.68998 -37.49282,-4.97659 -10.39832,0.0667 -21.21042,1.83527 -31.00339,3.93153 -15.79048,5.52796 -27.59585,17.80741 -40.93648,27.36025 -9.70518,2.03339 6.1324,-9.82154 9.71427,-11.4674 8.66689,-8.85596 20.39265,-13.94351 31.27335,-19.33025 10.84607,-0.73425 21.45241,-2.79064 32.23646,-4.12041 10.56814,-1.6182 20.36766,2.03463 30.66294,3.34524 9.35571,2.73392 18.9376,5.28296 26.62006,11.87374 10.63983,5.40633 18.64141,14.37093 27.77138,21.80862 -0.59713,7.20055 21.98127,15.490092 12.63867,17.574512 z m -132.97343,-0.31481 c 5.68029,-7.634402 16.14444,-8.732882 24.00846,-13.194812 5.01593,-4.50556 26.21062,-3.2148 10.95854,0.006 -12.19877,1.34169 -22.11862,9.13531 -33.49175,12.910022 l -1.47525,0.27852 v 0 z m -56.3249,-2.04828 c 2.99148,-7.837102 5.23019,2.6161 0,0 z m 11.49629,-0.64532 c 4.11201,-13.700592 18.53156,-19.931342 28.90497,-28.244012 9.70911,-9.72705 23.33869,-14.48721 36.94516,-14.57766 13.87262,-3.96253 28.66337,-2.3961 42.37892,1.31167 4.65504,1.82605 21.94976,4.77787 18.208,8.82715 -9.73885,-2.46522 -18.88735,-7.29836 -28.96267,-8.16526 -11.98869,-4.42437 -24.54266,-1.51216 -36.44406,1.37023 -18.76323,1.80398 -32.93283,15.19358 -47.29622,25.91938 -4.64938,4.27795 -7.08977,12.01645 -13.7341,13.558502 z m 9.45392,-1.869532 c 6.05372,-10.9519 17.86634,-16.62906 26.99251,-24.60681 14.00375,-8.84597 30.74093,-12.51161 47.12416,-13.02124 10.45637,-0.34652 20.45241,3.0221 30.21706,5.70784 6.36771,0.73486 16.03276,9.54317 19.43194,7.40069 -8.9051,-12.68802 12.54467,5.85571 15.97801,9.30596 5.95159,2.41501 12.51674,13.84325 2.14253,8.7855 -6.68737,-9.64661 -16.61161,-14.77711 -27.50176,-18.3207 -17.08217,-9.44491 -37.34397,-10.18937 -56.36307,-8.57472 -16.27982,2.11447 -30.72299,11.00764 -42.3461,22.25475 -7.0384,0.28378 -9.03923,11.94612 -15.67528,11.06873 z m 19.43939,0.92931 c 4.40943,-10.22171 18.72798,-13.47123 25.23584,-19.78509 0.47688,5.98518 9.0029,1.64755 0.69588,5.07295 -10.13162,2.3675 -16.8302,12.12701 -25.93172,14.71214 z m -37.2082,-2.69277 c 3.95789,-11.33165 9.17644,6.495622 0,0 z m 187.02815,-4.74886 c -10.49649,-8.97268 -24.11975,-20.51331 -31.75448,-29.03627 12.10975,-0.47776 18.48905,13.57902 27.02991,20.70009 3.63402,0.85424 15.09878,15.64453 4.72457,8.33618 z m -188.54685,0.15186 c -3.83968,-6.56844 12.08873,-7.66559 2.36059,-1.58143 l -1.08804,0.75775 z m 9.13313,-1.34591 c -2.04907,-7.45764 7.14847,0.7952 0,0 z m -3.96954,-6.56563 c -7.17354,-6.37813 12.59919,-11.46924 14.78882,-18.46794 5.00384,-5.86681 14.0263,-3.67215 4.64823,2.40125 -7.70337,3.05827 -15.89516,14.43548 -19.43705,16.06669 z m 186.84064,-1.12473 c -8.67812,-6.83991 -15.23306,-16.00666 -24.38579,-22.31795 -6.33886,-9.45306 -17.06316,-12.0399 -26.36658,-17.2327 -5.94299,-6.5965 -21.01055,-4.85264 -23.1011,-11.94924 10.93578,1.46778 21.00074,6.35367 30.64009,11.50634 13.61493,6.61403 24.56245,17.44371 35.86291,27.2643 2.17428,0.97987 16.52092,20.69934 7.35047,12.72925 z m -126.70004,-4.87288 c 3.38378,-5.39609 21.82113,-5.34173 17.68681,-3.66602 -6.02141,0.63721 -11.43688,4.99179 -17.68681,3.66602 z m -64.92452,-3.55592 c 1.24173,-3.85903 4.15074,1.96244 0,0 z m 2.96147,-2.63198 c -0.26982,-6.75241 20.68968,-13.92667 9.21423,-5.19449 -2.86497,0.88296 -6.48681,7.02505 -9.21423,5.19449 z m 61.96305,0.83301 c 5.16774,-4.24804 23.35172,-8.49127 21.18957,-4.2725 -6.83349,2.37705 -14.07879,3.15877 -21.18957,4.2725 z m 126.09023,-2.69385 c -9.2617,-12.09642 -22.49799,-20.50188 -35.48098,-28.10329 -15.95594,-8.3983 -33.90362,-17.75979 -52.44031,-12.4675 -10.99739,2.70806 -23.02917,0.46791 -33.38503,5.8811 -4.53413,0.73129 -20.09462,8.98151 -17.83833,3.28268 11.37258,-4.47339 22.47971,-10.57297 35.0342,-10.51994 11.29172,-0.91116 22.4928,-4.13871 33.82102,-3.08359 12.0503,2.38815 23.69823,6.4319 34.3264,12.67152 12.06199,4.84904 21.39584,14.36269 31.93078,21.63452 2.18102,1.03923 11.06114,13.23512 4.03225,10.7045 z m -189.56249,-4.45803 c 2.21112,-11.59241 15.94872,-15.01959 24.58449,-20.84562 14.00023,-8.61241 29.06114,-15.42437 44.41714,-21.20652 10.34888,-2.68349 21.44697,-4.25691 32.00189,-2.43876 -4.303,4.12825 -18.46257,1.61894 -26.5094,4.50337 -19.77381,5.54425 -37.98213,15.67361 -55.61831,25.9089 -5.81255,5.13025 -14.26788,9.45141 -18.87581,14.07863 z m 145.59607,-5.94963 c -6.59864,-9.98294 15.22441,8.29968 1.13838,1.14144 -0.37946,-0.38048 -0.75892,-0.76096 -1.13838,-1.14144 z m -129.96293,0.81874 c 6.83293,-8.47483 17.3686,-12.53095 26.68221,-17.34928 11.09915,0.35489 -8.05244,6.96505 -11.31105,9.69927 -4.86539,2.47184 -9.89458,8.10282 -15.37116,7.65001 z m 12.54747,-0.0128 c 7.37673,-7.0078 17.58104,-9.79623 25.79949,-15.63449 11.43838,-5.09419 23.15439,-9.8355 35.89019,-10.06461 10.39744,-3.54346 20.21462,-0.1085 30.10296,3.52231 4.65577,1.06098 21.46663,7.89652 8.2837,5.15205 -18.77997,-7.12992 -39.66038,-6.79677 -58.94197,-1.95239 -12.34672,4.82632 -23.62319,11.78754 -35.23777,17.98476 -1.87968,0.69079 -3.88698,1.09733 -5.8966,0.99237 z m 130.2962,-0.47426 c -7.87589,-5.35368 -17.10299,-6.96283 -26.22785,-8.32974 -14.59093,-4.15072 -29.86124,-7.65433 -45.09897,-6.59954 -8.609,-0.38923 -18.19637,6.01318 -25.88925,3.61645 10.03763,-4.16362 21.1263,-6.10968 31.86731,-6.9368 16.15585,-1.14 31.47221,4.68426 47.04441,7.93769 3.47866,0.86991 23.38505,7.72015 18.30435,10.31194 z m -158.4863,-4.87062 c 3.54685,-12.36873 19.00618,-14.59442 28.5311,-20.88946 16.28426,-6.63694 30.96777,-17.63296 48.88725,-19.73706 4.76158,-1.97102 24.43141,-0.48207 9.64755,2.01275 -10.54627,0.99424 -20.92237,2.96694 -30.53033,7.80474 -12.89424,3.64009 -23.15469,12.91046 -35.65052,17.55526 -7.31475,3.89044 -13.8529,8.80168 -20.88505,13.25377 z m 188.88184,-1.55282 c -12.58469,-8.10585 -25.36207,-15.79706 -38.6956,-22.58906 -9.28321,-5.12534 -19.94592,-6.72435 -29.63163,-10.75887 -8.08059,1.83549 -20.07993,-2.28201 -24.08501,-5.36537 10.69448,-2.20638 22.61316,2.54196 33.39178,4.82737 9.50705,3.67505 19.53718,6.82003 28.18987,12.0124 2.58234,3.75907 17.09066,8.90052 8.74894,0.75876 -16.59856,-9.72944 -34.29625,-18.35028 -53.57697,-21.26471 -20.08611,-2.8649503 -41.38341,-2.5202003 -59.88508,6.69987 -5.03331,1.13352 -17.56116,11.70147 -18.37967,4.0618 8.34137,-4.15495 19.08148,-7.89999 29.24514,-10.88056 18.66777,-6.2798003 39.4169,-7.3798703 58.20429,-1.01501 18.04832,3.8524 34.74906,12.11387 49.54066,23.03777 3.58055,9.06832 21.06088,13.44413 19.55526,22.24073 l -0.95373,-0.45796 z m 0.41405,-12.06462 c -9.46563,-7.34144 -18.47971,-15.2405 -28.91347,-21.21086 -13.50752,-9.67934 -30.21918,-12.1351103 -45.84408,-16.5850003 -12.09892,-2.06091 -24.90431,-3.81046995 -36.98099,-0.58179 -11.23475,1.92296 -22.02467,6.6974003 -33.36677,8.7325203 -8.66568,3.684 -19.05563,12.49471 -27.08976,12.34125 10.69733,-8.26519 22.62046,-15.3920703 36.09259,-18.7330403 11.20486,-3.78907 22.97235,-3.74794 34.17562,-7.64095 10.56496,1.12504005 21.67506,1.10905005 32.07249,3.77274 20.83222,4.35218 41.25476,12.8489403 58.31783,25.8917303 5.07955,0.56777 20.04418,18.7998 11.66706,14.14245 l -0.13052,-0.12905 c 0,0 0,0 0,0 z m -189.33419,1.22498 c 5.50029,-9.27258 18.55962,-9.45046 26.4156,-16.06183 7.77559,-5.7014 8.85029,2.52122 0.59977,3.70748 -8.62073,5.36461 -18.27964,7.17394 -27.01537,12.35435 z M 449.12,32.545258 c -0.28337,-7.30995 8.15796,3.50024 0,0 z m 6.82788,-3.68404 c 1.89102,-6.38568 5.87593,1.43302 0,0 z m -8.65032,-1.78328 c 1.12351,-6.22502 22.38211,-13.58741 10.39856,-4.43623 -2.85038,2.46655 -6.43489,4.8616 -10.39856,4.43623 z m 182.72963,-0.60749 c -10.17394,-3.483 -16.88617,-12.95422 -27.17274,-16.43818 -17.99782,-9.46415025 -38.31665,-12.8007503 -58.34028,-14.7263903 -13.06468,-3.64014 -25.19679,1.91881 -38.13621,2.20437 -11.27878,2.92773005 -21.88044,8.08343 -33.01152,11.47931 -0.56833,-7.85109 16.35233,-6.5324 22.27635,-11.96957 9.111,-4.19956 20.04951,-0.49179 29.20556,-5.27199 9.77293,-2.2699797 19.53714,0.31163 29.20165,0.89729 9.618,4.86598 20.12894,3.31281 30.28274,5.53163 14.93841,4.53966 28.91949,12.2656003 40.58528,22.5380703 13.90558,6.4264 -8.23208,-11.1028903 -12.2069,-14.6459803 -11.08536,-9.8691 -26.11044,-12.38478 -39.90858,-15.91731 -15.44681,1.04686 -30.86963,-7.3176397 -46.05133,-1.6474697 -5.04338,-2.94194 -20.94137,8.0279697 -18.58955,0.64694 10.93209,-4.28023 23.0291,-5.43148 34.68427,-5.67132 11.49873,0.54161 22.11307,5.50263 33.77613,4.7253 16.31118,0.13556 31.00703,8.3587997 42.73253,19.1316897 3.92402,1.29877 24.79555,23.3360803 10.6726,19.1336103 z m -179.08475,-9.87157 c 4.74781,-10.4940703 28.44672,-10.4805803 9.20179,-2.86076 -3.02645,1.08386 -6.15759,1.83287 -9.20179,2.86076 z m 12.00562,-0.24581 c 6.41103,-7.8485503 10.33702,3.99103 0,0 z m -14.1318,-5.28814 c 3.19016,-7.0747703 5.50022,2.69211 0,0 z m 179.9711,-1.6739603 c -1.60054,-8.55397995 8.24545,2.4732803 0,0 z m -174.41265,-1.69168 c 6.02083,-10.00632 20.72573,-11.0795 29.39091,-18.0957897 1.06112,1.5865997 -1.82914,7.6835697 -4.07292,9.0379397 -7.41364,-1.36668 -18.09486,7.11108 -25.31799,9.05785 z m 169.26516,-1.55845 c -3.39706,-10.90817 -16.80181,-12.61461 -24.72415,-19.2015797 -9.73541,-2.85936 -18.94906,-6.87056 -28.05479,-11.29402 -10.1759,-3.82579 -21.23897,-3.15858 -31.83273,-5.06526 -10.44032,1.33013 -20.86446,1.99116 -31.20252,4.81997 -12.17426,3.04001 -24.05237,8.24635 -34.38616,14.9797597 -7.44254,-6.0736997 13.72283,-9.9592197 18.95183,-13.6599697 11.69428,-3.83454 23.40293,-7.94067 35.86511,-8.5901 12.64916,-1.99218 25.18533,0.70318 37.59618,2.47058 17.22293,5.80073 34.31202,12.53428 49.78766,22.1557897 4.35774,0.71243 19.68049,14.51174 7.99957,13.38483 z m -137.74418,-9.48627 c 1.33187,-8.3390897 16.52168,-1.07973 3.91968,-1.23588 -1.51985,-0.67264 -2.7123,3.13542 -3.91968,1.23588 z m -26.03088,-1.01177 c -2.94948,-10.3676397 18.068,-3.37344 3.8047,-1.4372 -1.12775,0.6454 -2.32883,2.55285 -3.8047,1.4372 z m 29.80453,-5.46933 c 5.51567,-7.0570097 17.99045,-9.8060497 26.23928,-10.9124497 -0.66533,6.45913 -14.79094,4.905 -20.07126,10.66456 -1.9769,0.6633997 -4.14568,0.7977097 -6.16802,0.2478897 z m 127.31688,-3.3291197 c -14.23166,-7.48168 -28.90199,-14.01283 -44.21678,-18.96856 -10.53744,-4.16832 -22.46677,-3.98301 -33.68093,-4.58622 -11.17742,1.95207 -22.80249,-0.056 -33.60482,3.56215 -6.28152,1.00494 -22.79388,11.87468 -23.61563,4.65639 10.55514,-1.98179 19.14052,-10.01989 30.26843,-10.05163 12.07722,-1.2226 24.20546,-1.45825 36.21464,-2.42286 10.33648,0.79192 20.06049,2.18566 29.36968,6.83676 11.63681,3.91351 22.58516,9.72691 34.4291,13.04059 1.05439,1.97493 15.34659,11.3106197 4.83631,7.93338 z m -154.85388,-1.22563 c 0.57341,-8.15111 24.22378,-13.94012 10.918,-4.54992 -3.43498,1.96926 -7.18849,3.26949 -10.918,4.54992 z m 113.42347,-1.36128 c -14.67615,-3.31125 -29.60427,-5.43438 -44.6775,-4.27154 -5.37016,1.0263 -14.61378,-2.35491 -4.09818,-3.2817 12.38735,-0.58016 25.11009,-1.13324 37.34591,1.12909 2.01612,-0.30729 19.56714,6.89348 11.42977,6.42415 z m 29.86841,-12.46026 c -11.88565,-6.4951 -25.05046,-9.85615 -37.63568,-14.61741 -5.12632,-0.76134 -26.33879,-2.58291 -11.13493,-4.7481 13.35509,0.26618 25.20959,7.55084 38.00324,10.64656 2.99403,-0.10394 24.8118,12.22147 10.76737,8.71895 z m -129.78993,-2.7726 c 5.37918,-8.16877 16.54735,-9.03712 24.58653,-13.48341 10.81764,-1.56455 22.49819,-7.46613 32.58388,-5.27147 -11.94131,6.17675 -25.20725,5.84787 -37.26319,10.81845 -6.5328,2.89994 -12.95199,6.1244 -19.90722,7.93643 z m 54.52336,-10.87161 c 2.68744,-7.55145 8.92034,3.07711 0,0 z m 14.13356,-4.99613 c -0.75267,-3.0181 2.5023,0.72875 0,0 z m -5.71966,-1.34624 c 1.63169,-5.45907 1.78989,4.40554 0,0 z m -1.57518,-4.1293 c 0.29525,-2.52273 2.41542,1.51753 0,0 z"
       id="path2830"
       inkscape:connector-curvature="0" />
    <path
       style="fill:#abceaa;stroke:none;stroke-width:0.77497452px;stroke-linecap:butt;stroke-linejoin:miter;stroke-opacity:1;fill-opacity:1"
       d="m 505.08229,347.69499 h 66.86995 v 147.73482 h 66.86994 L 538.51727,642.2176 438.21235,495.42981 h 66.86994 z"
       id="path815"
       inkscape:connector-curvature="0"
       sodipodi:nodetypes="cccccccc" />
  </g>
</svg>
